<svg xmlns="http://www.w3.org/2000/svg" xml:space="preserve" width="2000" height="102" data-id="lg_MiNRgn5Nv2QzxRoeDb" data-version="1" viewBox="0 0 2000 102"><g data-padding="20"><g transform="translate(10.35 1.836)scale(.964)"><path fill="#ef5b2a" d="M799.999-.018a51.018 51.018 0 1 0 0 102.036 51.018 51.018 0 1 0 0-102.036"/><rect width="446.433" height="98.31" x="405.763" y="-398.005" fill="none" rx="0" ry="0" transform="translate(457.29 399.5)"/><path fill="#ef5b2a" d="M876.879 37.62v40.37h-8.18V37.97q0-10.27 5.53-16.01 5.52-5.74 14.66-5.74 9.74 0 15.09 5.56 5.35 5.57 5.35 14.18 0 5.4-1.95 9.4-1.96 4-5.27 6.18-3.3 2.17-7.04 3.22-3.75 1.04-7.83 1.04h-6.53v-7.66h7.48q5.83 0 9.18-3.52t3.35-8.83q0-5.22-3.09-8.57t-8.83-3.35q-5.57 0-8.74 3.79-3.18 3.78-3.18 9.96m40.73 23.83V17.08h7.83v44.37q0 3.13.74 5.08.74 1.96 2.3 2.79 1.57.83 3.05 1.09t3.91.26v7.31q-9.74 0-13.79-3.75-4.04-3.74-4.04-12.78m46.71-8.01v7.83q-3.31-2.52-8.09-2.52-4.09 0-6.35 1.61-2.27 1.61-2.27 4.57 0 5.74 8.53 5.74h11.48V54.05q0-10.53-10.26-10.53h-13.92v-7.3h14.35q8.44 0 12.97 4.17 4.52 4.18 4.52 12.01v25.58h-19.4q-7.4 0-11.75-3.31t-4.35-9.66 4.62-9.65q4.61-3.31 11.57-3.31 3.91 0 8.35 1.39m23.92-9.91h-7.74l15.57-15.57v8.27h11.75v7.3h-11.75v17.93q0 3.04 1 5.04t2.92 2.83q1.91.83 3.61 1.09 1.69.26 4.22.26v7.31q-10.01 0-14.79-3.83-4.79-3.83-4.79-12.7Zm48.29-8.18q14.79.6 14.79 12.26 0 14.53-19.05 14.53h-3.57v-6.7h4.17q5.83 0 8.1-1.78 2.26-1.78 2.26-5.96 0-2.7-2-4.05-2-1.34-5.14-1.34-6.17 0-9.7 4.35-3.52 4.35-3.52 10.44 0 6.43 3.78 10.44 3.79 4 9.88 4 5.48 0 8.96-2.7l5.22 5.13q-6 4.88-14.18 4.88-9.92 0-15.84-5.83-5.91-5.83-5.91-15.05 0-10.27 5.83-16.62t15.92-6m42.89 42.63q-8.53 0-14.62-5.75-6.09-5.74-6.09-14.7 0-9.05 6.14-15.18 6.13-6.13 15.18-6.13h20.44v40.54q0 3.91-1 7.04-1 3.14-2.83 5.31-1.82 2.18-3.3 3.39-1.48 1.22-3.57 2.53-5.39 2.78-13.14 2.78h-9.74V90.5h8.96q7.66 0 10.88-1.91 5.91-3.31 5.91-10.96V43.52h-12.61q-6.18 0-9.83 3.83-3.66 3.83-3.66 10.18 0 6.09 3.79 9.61 3.78 3.53 9.09 3.53 5.74 0 10.09-3.13v7.83q-4.7 2.61-10.09 2.61m66.55-41.76v41.76h-15.05q-9.65 0-13.83-2.88-3.74-2.52-4.74-6.04-1-3.53-1-9.27V36.22h7.65v23.49q0 1.56.09 2.65t.61 2.78q.52 1.7 1.48 2.79.96 1.08 2.78 1.91 1.83.83 4.44.83h9.92V36.22Zm31.32-.87q14.79.6 14.79 12.26 0 14.53-19.05 14.53h-3.57v-6.7h4.18q5.83 0 8.09-1.78t2.26-5.96q0-2.7-2-4.05-2-1.34-5.13-1.34-6.18 0-9.7 4.35t-3.52 10.44q0 6.43 3.78 10.44 3.78 4 9.87 4 5.49 0 8.97-2.7l5.22 5.13q-6.01 4.88-14.19 4.88-9.91 0-15.83-5.83t-5.92-15.05q0-10.27 5.83-16.62t15.92-6m37.08.87h15.4v7.3h-15.4q-2.53 0-4.35.96-1.83.96-1.83 2.7 0 1.04.43 1.87.44.82 1 1.35.57.52 1.74 1.08 1.18.57 1.83.79l5.53 1.78q4.87 1.57 7.22 2.61t3.61 2.83q1.26 1.78 1.61 3.48.35 1.69.35 3.35 0 11.66-16.01 11.66h-15.05v-7.31h15.05q8.18 0 8.18-4.35 0-2.09-2.4-3.48-2.39-1.39-5.83-2.35-3.43-.96-6.87-2.22t-5.83-4.09-2.39-7q0-5.31 4.09-8.14 4.09-2.82 9.92-2.82m39.4 0h15.4v7.3h-15.4q-2.53 0-4.35.96-1.83.96-1.83 2.7 0 1.04.44 1.87.43.82 1 1.35.56.52 1.74 1.08 1.17.57 1.82.79.66.21 5.53 1.78t7.22 2.61 3.61 2.83q1.26 1.78 1.61 3.48.35 1.69.35 3.35 0 11.66-16.01 11.66h-15.05v-7.31h15.05q8.18 0 8.18-4.35 0-2.09-2.4-3.48-2.39-1.39-5.83-2.35-3.43-.96-6.87-2.22-3.43-1.26-5.83-4.09-2.39-2.83-2.39-7 0-5.31 4.09-8.14 4.09-2.82 9.92-2.82m32.19 41.76h-7.66V54.22q0-10 3.74-13.83 1.83-1.91 4.44-2.87t4.57-1.13q1.95-.17 5.35-.17h7.65v7.3h-9.22q-1.74 0-2.7.09-.95.09-2.26.61-1.3.52-2.26 1.65-1.65 2.09-1.65 8.35Z"/><rect width="32.769" height="64.41" x="612.594" y="-381.055" fill="none" rx="0" ry="0" transform="translate(171.67 399.62)"/><path fill="#fff" d="M794.859 43.54v26.45h-5.36V43.77q0-6.73 3.62-10.49t9.6-3.76q6.39 0 9.89 3.64 3.51 3.65 3.51 9.29 0 3.54-1.28 6.16-1.29 2.62-3.45 4.05-2.17 1.42-4.62 2.11-2.45.68-5.13.68h-4.27v-5.02h4.9q3.82 0 6.01-2.3 2.2-2.31 2.2-5.79 0-3.42-2.03-5.61-2.02-2.2-5.78-2.2-3.65 0-5.73 2.48t-2.08 6.53"/></g><path fill="transparent" stroke="transparent" d="M722.14.018h560.801v101.964H722.14z"/></g></svg>